<svg xmlns="http://www.w3.org/2000/svg" xmlns:xlink="http://www.w3.org/1999/xlink" width="1000" zoomAndPan="magnify" viewBox="0 0 750 749.999995" height="1000" preserveAspectRatio="xMidYMid meet" version="1.0"><defs><g/><clipPath id="79ef211501"><path d="M 24.253906 37.183594 L 725.503906 37.183594 L 725.503906 650.679688 L 24.253906 650.679688 Z M 24.253906 37.183594 " clip-rule="nonzero"/></clipPath><clipPath id="e78c9dbe84"><path d="M 374.996094 37.183594 L 725.738281 650.980469 L 24.253906 650.980469 Z M 374.996094 37.183594 " clip-rule="nonzero"/></clipPath><clipPath id="58fbf9e93a"><path d="M 163.101562 262.117188 L 586.847656 262.117188 L 586.847656 650.617188 L 163.101562 650.617188 Z M 163.101562 262.117188 " clip-rule="nonzero"/></clipPath><clipPath id="1aef0e564e"><path d="M 374.996094 262.117188 C 257.96875 262.117188 163.101562 349.167969 163.101562 456.546875 C 163.101562 563.929688 257.96875 650.980469 374.996094 650.980469 C 492.023438 650.980469 586.894531 563.929688 586.894531 456.546875 C 586.894531 349.167969 492.023438 262.117188 374.996094 262.117188 Z M 374.996094 262.117188 " clip-rule="nonzero"/></clipPath><clipPath id="454d09cc38"><rect x="0" width="107" y="0" height="207"/></clipPath><clipPath id="7635fa639f"><rect x="0" width="107" y="0" height="207"/></clipPath><clipPath id="ef89bbdea8"><rect x="0" width="332" y="0" height="207"/></clipPath><clipPath id="a9d38cfd48"><rect x="0" width="94" y="0" height="207"/></clipPath></defs><g clip-path="url(#79ef211501)"><g clip-path="url(#e78c9dbe84)"><path stroke-linecap="butt" transform="matrix(0.75, 0, 0, 0.75, 24.252942, 37.178957)" fill="none" stroke-linejoin="miter" d="M 467.657559 0.00618171 L 935.313832 818.402055 L 0.00128627 818.402055 Z M 467.657559 0.00618171 " stroke="#ffffff" stroke-width="42" stroke-opacity="1" stroke-miterlimit="4"/></g></g><g clip-path="url(#58fbf9e93a)"><g clip-path="url(#1aef0e564e)"><path stroke-linecap="butt" transform="matrix(0.75, 0, 0, 0.75, 163.099317, 262.116454)" fill="none" stroke-linejoin="miter" d="M 282.529049 0.000978498 C 126.492583 0.000978498 0.00299386 116.068692 0.00299386 259.240574 C 0.00299386 402.417665 126.492583 518.485379 282.529049 518.485379 C 438.565515 518.485379 565.060313 402.417665 565.060313 259.240574 C 565.060313 116.068692 438.565515 0.000978498 282.529049 0.000978498 Z M 282.529049 0.000978498 " stroke="#ffffff" stroke-width="42" stroke-opacity="1" stroke-miterlimit="4"/></g></g><g transform="matrix(1, 0, 0, 1, 81, 467)"><g clip-path="url(#454d09cc38)"><g fill="#ffffff" fill-opacity="1"><g transform="translate(0.182137, 156.78679)"><g><path d="M 59.03125 1.53125 C 49.6875 1.53125 41.359375 -0.609375 34.046875 -4.890625 C 26.742188 -9.179688 21.019531 -15.453125 16.875 -23.703125 C 12.738281 -31.960938 10.671875 -41.863281 10.671875 -53.40625 C 10.671875 -64.957031 12.738281 -74.859375 16.875 -83.109375 C 21.019531 -91.367188 26.742188 -97.640625 34.046875 -101.921875 C 41.359375 -106.210938 49.6875 -108.359375 59.03125 -108.359375 C 69.019531 -108.359375 77.328125 -106.46875 83.953125 -102.6875 C 90.578125 -98.914062 95.351562 -93.234375 98.28125 -85.640625 L 90.234375 -80.296875 L 88.40625 -80.296875 C 85.488281 -86.390625 81.691406 -90.710938 77.015625 -93.265625 C 72.335938 -95.828125 66.34375 -97.109375 59.03125 -97.109375 C 52.3125 -97.109375 46.34375 -95.609375 41.125 -92.609375 C 35.914062 -89.617188 31.773438 -84.867188 28.703125 -78.359375 C 25.640625 -71.859375 24.109375 -63.539062 24.109375 -53.40625 C 24.109375 -43.28125 25.640625 -34.976562 28.703125 -28.5 C 31.773438 -22.019531 35.914062 -17.28125 41.125 -14.28125 C 46.34375 -11.289062 52.3125 -9.796875 59.03125 -9.796875 C 66.78125 -9.796875 73.113281 -11.535156 78.03125 -15.015625 C 82.957031 -18.492188 86.613281 -24.132812 89 -31.9375 L 90.828125 -31.9375 L 99.21875 -27.765625 C 96.6875 -18.316406 92 -11.070312 85.15625 -6.03125 C 78.3125 -0.988281 69.601562 1.53125 59.03125 1.53125 Z M 59.03125 1.53125 "/></g></g></g></g></g><g transform="matrix(1, 0, 0, 1, 564, 467)"><g clip-path="url(#7635fa639f)"><g fill="#ffffff" fill-opacity="1"><g transform="translate(0.070522, 156.78679)"><g><path d="M 96.15625 0 L 82.71875 0 L 72.84375 -29.296875 L 27.328125 -29.296875 L 17.390625 0 L 4.234375 0 L 41.5 -106.828125 L 58.890625 -106.828125 Z M 49.171875 -93.890625 L 30.828125 -39.828125 L 69.265625 -39.828125 L 51 -93.890625 Z M 49.171875 -93.890625 "/></g></g></g></g></g><path fill="#ffffff" d="M 185.925781 655.484375 L 182.355469 655.484375 L 182.355469 639.734375 L 185.925781 639.734375 " fill-opacity="1" fill-rule="nonzero"/><path stroke-linecap="round" transform="matrix(-0.75, 0, 0, -0.75, 185.924055, 655.486284)" fill="none" stroke-linejoin="round" d="M -37.241887 -20.997456 L 4.758115 10.502546 L -37.241887 42.002547 " stroke="#ffffff" stroke-width="21" stroke-opacity="1" stroke-miterlimit="4"/><path fill="#ffffff" d="M 586.902344 639.734375 L 590.46875 639.734375 L 590.46875 655.484375 L 586.902344 655.484375 " fill-opacity="1" fill-rule="nonzero"/><path stroke-linecap="round" transform="matrix(0.75, 0, 0, 0.75, 586.90063, 639.736285)" fill="none" stroke-linejoin="round" d="M -37.242509 -21.002547 L 4.757494 10.497454 L -37.242509 41.997456 " stroke="#ffffff" stroke-width="21" stroke-opacity="1" stroke-miterlimit="4"/><path fill="#ffffff" d="M 669.421875 537.09375 L 670.832031 540.371094 L 656.367188 546.597656 L 654.957031 543.320312 " fill-opacity="1" fill-rule="nonzero"/><path stroke-linecap="round" transform="matrix(0.296558, 0.688878, -0.688878, 0.296558, 669.42261, 537.092754)" fill="none" stroke-linejoin="round" d="M -37.241128 -20.9983 L 4.758711 10.498628 L -37.244859 41.998776 " stroke="#ffffff" stroke-width="21" stroke-opacity="1" stroke-miterlimit="4"/><path fill="#ffffff" d="M 431.75 156.65625 L 430.144531 153.46875 L 444.207031 146.378906 L 445.816406 149.566406 " fill-opacity="1" fill-rule="nonzero"/><path stroke-linecap="round" transform="matrix(-0.33762, -0.669711, 0.669711, -0.33762, 431.750718, 156.654958)" fill="none" stroke-linejoin="round" d="M -37.244125 -20.999187 L 4.755536 10.498012 L -37.244573 42.000045 " stroke="#ffffff" stroke-width="21" stroke-opacity="1" stroke-miterlimit="4"/><path fill="#ffffff" d="M 303.839844 150.128906 L 305.753906 147.121094 L 319.042969 155.578125 L 317.125 158.585938 " fill-opacity="1" fill-rule="nonzero"/><path stroke-linecap="round" transform="matrix(0.402701, -0.632718, 0.632718, 0.402701, 303.838874, 150.129461)" fill="none" stroke-linejoin="round" d="M -37.243895 -20.998359 L 4.757637 10.500191 L -37.24188 41.997433 " stroke="#ffffff" stroke-width="21" stroke-opacity="1" stroke-miterlimit="4"/><path fill="#ffffff" d="M 96.835938 540.117188 L 94.902344 543.113281 L 81.664062 534.574219 L 83.601562 531.578125 " fill-opacity="1" fill-rule="nonzero"/><path stroke-linecap="round" transform="matrix(-0.406595, 0.630222, -0.630222, -0.406595, 96.834812, 540.115434)" fill="none" stroke-linejoin="round" d="M -37.240849 -20.999216 L 4.755209 10.498215 L -37.24339 42.001011 " stroke="#ffffff" stroke-width="21" stroke-opacity="1" stroke-miterlimit="4"/><g transform="matrix(1, 0, 0, 1, 209, 343)"><g clip-path="url(#ef89bbdea8)"><g fill="#ffffff" fill-opacity="1"><g transform="translate(0.929446, 156.098417)"><g><path d="M 83.375 -106.828125 L 83.375 -96.15625 L 49.90625 -96.15625 L 49.90625 0 L 37.40625 0 L 37.40625 -96.15625 L 3.953125 -96.15625 L 3.953125 -106.828125 Z M 83.375 -106.828125 "/></g></g></g><g fill="#ffffff" fill-opacity="1"><g transform="translate(84.809131, 156.098417)"><g><path d="M 56.1875 1.53125 C 47.226562 1.53125 39.328125 -0.507812 32.484375 -4.59375 C 25.640625 -8.6875 20.289062 -14.847656 16.4375 -23.078125 C 12.59375 -31.316406 10.671875 -41.425781 10.671875 -53.40625 C 10.671875 -65.394531 12.726562 -75.503906 16.84375 -83.734375 C 20.957031 -91.960938 26.664062 -98.125 33.96875 -102.21875 C 41.28125 -106.3125 49.707031 -108.359375 59.25 -108.359375 C 69.476562 -108.359375 77.878906 -106.519531 84.453125 -102.84375 C 91.035156 -99.164062 95.691406 -93.671875 98.421875 -86.359375 L 90.234375 -81.546875 L 88.40625 -81.546875 C 85.632812 -87.097656 81.882812 -91.078125 77.15625 -93.484375 C 72.4375 -95.898438 66.46875 -97.109375 59.25 -97.109375 C 35.820312 -97.109375 24.109375 -82.539062 24.109375 -53.40625 C 24.109375 -38.257812 27.054688 -27.203125 32.953125 -20.234375 C 38.847656 -13.273438 47.101562 -9.796875 57.71875 -9.796875 C 67.46875 -9.796875 74.765625 -12.007812 79.609375 -16.4375 C 84.453125 -20.875 86.875 -27.863281 86.875 -37.40625 L 86.875 -46.828125 L 56.484375 -46.828125 L 56.484375 -56.921875 L 99.078125 -56.921875 L 99.078125 0 L 87.453125 0 L 87.453125 -14.328125 L 85.921875 -14.6875 C 83.097656 -9.1875 79.164062 -5.109375 74.125 -2.453125 C 69.082031 0.203125 63.101562 1.53125 56.1875 1.53125 Z M 56.1875 1.53125 "/></g></g><g transform="translate(195.869342, 156.098417)"><g><path d="M 27.765625 0 L 16.140625 0 L 16.140625 -106.828125 L 34.78125 -106.828125 L 67.140625 -16.359375 L 68.6875 -16.359375 L 101.046875 -106.828125 L 119.03125 -106.828125 L 119.03125 0 L 107.109375 0 L 107.109375 -87.171875 L 105.296875 -87.453125 L 73.71875 0 L 61.234375 0 L 29.59375 -87.453125 L 27.765625 -87.171875 Z M 27.765625 0 "/></g></g></g></g></g><g transform="matrix(1, 0, 0, 1, 329, 71)"><g clip-path="url(#a9d38cfd48)"><g fill="#ffffff" fill-opacity="1"><g transform="translate(0.224996, 156.200674)"><g><path d="M 46.6875 1.53125 C 39.96875 1.53125 33.941406 0.617188 28.609375 -1.203125 C 23.273438 -3.035156 18.828125 -5.4375 15.265625 -8.40625 C 11.710938 -11.375 9.0625 -14.632812 7.3125 -18.1875 L 14.171875 -26.515625 L 16 -26.515625 C 22.625 -15.367188 32.851562 -9.796875 46.6875 -9.796875 C 54.726562 -9.796875 60.707031 -11.472656 64.625 -14.828125 C 68.550781 -18.191406 70.515625 -22.867188 70.515625 -28.859375 C 70.515625 -32.367188 69.867188 -35.335938 68.578125 -37.765625 C 67.285156 -40.203125 65.148438 -42.285156 62.171875 -44.015625 C 59.203125 -45.742188 55.160156 -47.242188 50.046875 -48.515625 L 37.5625 -51.578125 C 28.25 -53.828125 21.390625 -57.394531 16.984375 -62.28125 C 12.578125 -67.175781 10.375 -73.378906 10.375 -80.890625 C 10.375 -86.191406 11.738281 -90.925781 14.46875 -95.09375 C 17.195312 -99.257812 21.191406 -102.507812 26.453125 -104.84375 C 31.710938 -107.1875 37.992188 -108.359375 45.296875 -108.359375 C 53.335938 -108.359375 60.117188 -107.222656 65.640625 -104.953125 C 71.171875 -102.691406 75.59375 -99.296875 78.90625 -94.765625 L 72.78125 -86.515625 L 70.953125 -86.515625 C 67.878906 -90.265625 64.25 -93.015625 60.0625 -94.765625 C 55.875 -96.515625 50.953125 -97.390625 45.296875 -97.390625 C 37.890625 -97.390625 32.300781 -95.953125 28.53125 -93.078125 C 24.757812 -90.210938 22.875 -86.242188 22.875 -81.171875 C 22.875 -76.347656 24.257812 -72.507812 27.03125 -69.65625 C 29.8125 -66.8125 34.488281 -64.613281 41.0625 -63.0625 L 53.84375 -59.984375 C 64.21875 -57.546875 71.734375 -53.804688 76.390625 -48.765625 C 81.046875 -43.722656 83.375 -37.285156 83.375 -29.453125 C 83.375 -23.410156 82.019531 -18.0625 79.3125 -13.40625 C 76.613281 -8.757812 72.507812 -5.109375 67 -2.453125 C 61.5 0.203125 54.726562 1.53125 46.6875 1.53125 Z M 46.6875 1.53125 "/></g></g></g></g></g></svg>